<?xml version="1.0" encoding="utf-8"?>
<!-- Generator: Adobe Illustrator 18.0.0, SVG Export Plug-In . SVG Version: 6.00 Build 0)  -->
<!DOCTYPE svg PUBLIC "-//W3C//DTD SVG 1.1//EN" "http://www.w3.org/Graphics/SVG/1.1/DTD/svg11.dtd">
<svg version="1.1" id="Layer_1" xmlns="http://www.w3.org/2000/svg" xmlns:xlink="http://www.w3.org/1999/xlink" x="0px" y="0px"
	 viewBox="0 0 139 301" enable-background="new 0 0 139 301" xml:space="preserve">
<g>
	<path fill="#231F20" d="M114.9,26.8c0,0-6.7-7.6-24.8-4.4l-7.4,1.8c0,0,0.8,11.2-5.7,14.6c0,0-7.8,7.2-11.7,8.9
		c0,0-5.1,11.2-8.3,14l2.1,3.8c0,0-3.6,1.5-6.6,10.2c0,0-6.1,10.6,0,29c0,0-4.4-19.5-7-15.5c0,0-5.5,16.7,1.5,21.4
		c0,0,2.3,3.8,5.7,1.1c0,0,1.1,12.7,6.4,18.9l-6.6-4.4c0,0,7,19.1,10.8,23.9l-11.2-15.7l9.1,20.8l-11.7-17.6c0,0,1.3,19.5,7.4,28
		c0,0,16.1,19.5,14.2,27.1c0,0-1.7-14.2-14-23.5c0,0-9.1-12.9-8.1-19.3c0,0-4,11.7,1.5,18.4c0,0,3.2,14-1.7,16.5
		c0,0-1.3,12.3,3,15.5c0,0-10.8-5.3-11.2-12.3c0,0-11.9-1.1-11.9-5.1c0,0-19.9-10.8-22-26.1c0,0-4-13.6,3.6-28.8c0,0,5.3-7.4,7-16.1
		l-0.6-3.2c0,0-5.1,10.8-10.2,16.3c0,0-7.2,3.6-4.4,20.3c0,0-4.4-12.5,1.3-20.6c0,0,9.7-8.1,12.1-18.4c0,0,4.2-15.7,3.2-26.5
		c0,0-1.5-18.9,4.2-28c0,0-0.2-13.1,6.6-20.1c0,0,4.7-18.6,24.6-25.6c0,0,8.5-1.5,10.4,0c0,0,4.7-5.1,8.7-5.1c0,0,6.8-0.2,11.2,1.1
		c0,0,10,3.8,13.8,3.6c0,0,4.2,0.4,6.4,2.5c0,0,5.7,7,7.8,6.6c0,0,8.1,4.4,10.2,8.3c0,0,9.7,22.7,8.9,31.8c0,0,0.7,5.4,1.7,7.8
		c0,0,5.9,17.1,4.7,22.7c0,0,1.6,7.1,0.2,11c0,0-1.4-13.7-4-15.3l-0.7-1.1c0,0,0.8-1.6,0.8-2.6l-0.6-2.8c0,0,1.1-3.6-0.1-6.9
		c0,0-2.6-5.4-2.9-8.1c0,0-5.6-26-8.8-28.5C121.6,31.2,117.8,27.7,114.9,26.8z"/>
	<path fill="#231F20" d="M124.7,127.5c0,0-3.2,35.9,0,41.3c0,0,3.8,7.6,7.6,19.4c0,0-0.3,14.3-2.9,28.9c0,0,0,11.8,4.4,15.9
		c0,0-10.5-8.6-10.6-21.9c0,0,5.2-12.7,3.3-17.2c0,0-0.3-9.2-7.9-18.8c0,0-6.7,3.8-4.8,8.6c0,0-6.7,7.3-0.3,19.4
		c0,0,14,26.1,14.6,37.5c0,0,10.7,25.1,10.3,34c0,0-0.4,20.6-8.8,25.3c0,0,7.3-6.5,6.6-23.1c0,0-0.7,19.9-11.6,21.8
		c0,0,7.5-3.6,9-15.9c0,0-6.8,12.1-12.9,14.6c0,0,15.3-18.6,9.7-27.8l-5.8-5.9c0,0-1.8,0.8-1.1,6.8c0,0,1.9,13.1-1.1,19.9
		c0,0,0.4-10-1.1-13.6c0,0-5.1,2.8-3.8,12.9c0,0-5.3-12.3-5.5-20.6c0,0,5.9-18.9-6.8-33.3c0,0-12.3-11-15.9-20.8
		c0,0-6.8-11.4-1.5-25.9c0,0,3.2-18.4,10.6-36.2c0,0,1.1-2.5,2.8-1.6c0,0,10,1.3,16-3c0,0,5.4-4.1,4.7-11
		C122,137.6,122.9,130.1,124.7,127.5z"/>
</g>
</svg>
